HIERARCHY
ROOT Hips
{
	OFFSET 0.000000 0.000000 0.000000 
	CHANNELS 6 Xposition Yposition Zposition Zrotation Yrotation Xrotation
	JOINT LeftUpLeg
	{
		OFFSET 1.363060 -1.794630 0.839290 
		CHANNELS 3 Zrotation Yrotation Xrotation
		JOINT LeftLeg
		{
			OFFSET 2.448110 -6.726130 0.000000 
			CHANNELS 3 Zrotation Yrotation Xrotation
			JOINT LeftFoot
			{
				OFFSET 2.562200 -7.039590 0.000000 
				CHANNELS 3 Zrotation Yrotation Xrotation
				JOINT LeftToeBase
				{
					OFFSET 0.157640 -0.433110 2.322550 
					CHANNELS 3 Zrotation Yrotation Xrotation
					End Site
					{
						OFFSET 0.000000 0.000000 0.000000 
					}
				}
			}
		}
	}
	JOINT RightUpLeg
	{
		OFFSET -1.305520 -1.794630 0.839290 
		CHANNELS 3 Zrotation Yrotation Xrotation
		JOINT RightLeg
		{
			OFFSET -2.542530 -6.985550 0.000000 
			CHANNELS 3 Zrotation Yrotation Xrotation
			JOINT RightFoot
			{
				OFFSET -2.568260 -7.056230 0.000000 
				CHANNELS 3 Zrotation Yrotation Xrotation
				JOINT RightToeBase
				{
					OFFSET -0.164730 -0.452590 2.363150 
					CHANNELS 3 Zrotation Yrotation Xrotation
					End Site
					{
						OFFSET 0.000000 0.000000 0.000000 
					}
				}
			}
		}
	}
	JOINT Spine
	{
		OFFSET 0.028270 2.035590 -0.193380 
		CHANNELS 3 Zrotation Yrotation Xrotation
		JOINT Spine1
		{
			OFFSET 0.056720 2.048850 -0.042750 
			CHANNELS 3 Zrotation Yrotation Xrotation
			JOINT Neck1
			{
				OFFSET -0.054170 1.746240 0.172020 
				CHANNELS 3 Zrotation Yrotation Xrotation
				JOINT Head
				{
					OFFSET 0.104070 1.761360 -0.123970 
					CHANNELS 3 Zrotation Yrotation Xrotation
					End Site
					{
						OFFSET 0.000000 0.000000 0.000000 
					}
				}
			}
			JOINT LeftArm
			{
				OFFSET 3.362410 1.200890 -0.311210 
				CHANNELS 3 Zrotation Yrotation Xrotation
				JOINT LeftForeArm
				{
					OFFSET 4.983000 -0.000000 -0.000000 
					CHANNELS 3 Zrotation Yrotation Xrotation
					JOINT LeftHand
					{
						OFFSET 3.483560 -0.000000 -0.000000 
						CHANNELS 3 Zrotation Yrotation Xrotation
						JOINT LeftHandIndex1
						{
							OFFSET 0.715260 -0.000000 -0.000000 
							CHANNELS 3 Zrotation Yrotation Xrotation
							End Site
							{
								OFFSET 0.000000 0.000000 0.000000 
							}
						}
					}
				}
			}
			JOINT RightArm
			{
				OFFSET -3.136600 1.374050 -0.404650 
				CHANNELS 3 Zrotation Yrotation Xrotation
				JOINT RightForeArm
				{
					OFFSET -5.241900 -0.000000 -0.000000 
					CHANNELS 3 Zrotation Yrotation Xrotation
					JOINT RightHand
					{
						OFFSET -3.444170 -0.000000 -0.000000 
						CHANNELS 3 Zrotation Yrotation Xrotation
						JOINT RightHandIndex1
						{
							OFFSET -0.622530 -0.000000 -0.000000 
							CHANNELS 3 Zrotation Yrotation Xrotation
							End Site
							{
								OFFSET 0.000000 0.000000 0.000000 
							}
						}
					}
				}
			}
		}
	}
}
MOTION
Frames: 12
Frame Time: 0.041667
1.886604 17.690836 -6.602914 0.651466 -29.749400 5.506553 -11.480685 -8.809843 -27.534168 -1.148850 5.147581 14.594123 -1.485631 8.166149 3.453723 0.356300 -3.835000 -10.613000 20.172669 3.804483 -5.138825 -0.988544 -7.333770 24.226675 -1.111683 0.249484 -15.793106 -0.073000 1.742700 -4.795000 -0.278117 6.217452 -0.301316 -3.167172 3.882444 -1.290758 1.180211 0.136480 -4.542357 2.633300 -0.098000 5.780800 -53.605440 -1.566109 -5.870726 25.363102 -38.799589 -11.302392 0.135332 -1.822652 -12.527118 -7.125000 0.000000 0.000000 25.376902 29.430528 10.770724 -29.367062 37.014565 -12.168338 0.798580 -0.452155 16.187013 7.125000 0.000000 0.000000 
1.924501 17.690334 -6.678205 0.581779 -29.776603 5.547961 -11.351127 -8.897999 -27.454573 -1.198159 4.993404 14.162897 -1.595429 8.558262 2.928824 0.363900 -3.875300 -10.726200 20.195871 3.776259 -5.730271 -1.074275 -7.506210 24.728899 -1.135262 0.448019 -15.606884 -0.082300 1.850700 -5.093100 -0.212945 6.209390 -0.225795 -3.119955 3.864718 -1.358823 0.981763 0.100019 -4.715947 2.576200 -0.125600 5.725400 -55.012546 -1.201470 -4.805757 23.060486 -36.762857 -9.725111 0.137942 -1.826381 -10.438498 -7.125000 0.000000 0.000000 27.910694 28.726426 12.178529 -29.385596 36.853802 -12.093489 0.836648 -0.462432 14.390604 7.125000 0.000000 0.000000 
1.961494 17.688424 -6.751587 0.573456 -29.740837 5.590687 -11.312379 -8.954370 -27.439981 -1.239255 4.866070 13.809512 -1.672850 8.831849 2.501054 0.347400 -3.787200 -10.478700 20.174312 3.684738 -6.343098 -1.153822 -7.663745 25.185769 -1.158620 0.662719 -15.385677 -0.082700 1.854400 -5.103600 -0.045992 6.152864 -0.166459 -2.816669 3.820426 -1.468466 0.677592 0.126420 -4.854908 2.508900 -0.135100 5.673300 -56.723384 -0.840193 -4.192434 20.974813 -34.743245 -8.358519 0.162199 -1.805933 -7.369857 -7.125000 0.000000 0.000000 30.320015 27.831218 13.738422 -29.415737 36.745686 -12.036776 0.874209 -0.450507 12.357875 7.125000 0.000000 0.000000 
1.997380 17.686614 -6.817731 0.474165 -29.638403 5.725124 -11.242027 -8.882638 -27.518692 -1.277724 4.747275 13.467756 -1.697752 8.926393 2.356952 0.367600 -3.894500 -10.780000 20.246460 3.651400 -6.897974 -1.225513 -7.800073 25.584429 -1.218254 0.979174 -15.307056 -0.044000 1.354000 -3.723300 0.232150 6.091443 -0.136658 -2.344111 3.772843 -1.588414 0.346246 0.210217 -4.865251 2.454700 -0.127300 5.661600 -58.653300 -0.397453 -3.807108 18.951598 -32.609034 -7.079798 0.126568 -1.770233 -3.303697 -7.125000 0.000000 0.000000 32.571503 26.618548 15.246117 -29.437935 36.683910 -11.996058 0.904388 -0.427034 10.671737 7.125000 0.000000 0.000000 
2.031658 17.689730 -6.879250 0.296566 -29.497733 5.902366 -11.021608 -9.007261 -27.561459 -1.309110 4.637814 13.138403 -1.793384 9.309155 2.243721 0.353100 -3.817900 -10.564800 20.384100 3.486476 -7.476607 -1.289049 -7.914875 25.924577 -1.264602 1.296260 -15.113042 -0.009400 0.624800 -1.716900 0.411579 6.068480 -0.113424 -2.127116 3.747445 -1.660546 0.121612 0.253375 -4.810780 2.406700 -0.130100 5.672200 -60.352400 0.001181 -3.374234 16.992770 -30.364559 -5.891804 0.034271 -1.736624 1.172861 -7.125000 0.000000 0.000000 34.980594 25.341748 16.411403 -29.243419 36.457931 -11.818156 0.924207 -0.407596 9.675389 7.125000 0.000000 0.000000 
2.064529 17.697471 -6.943786 0.230084 -29.330774 5.966736 -10.786814 -9.389156 -27.491910 -1.333794 4.538714 12.841844 -1.968513 9.997023 2.043938 0.242600 -3.169500 -8.750900 20.455639 3.278113 -8.012667 -1.339352 -8.012678 26.211243 -1.249281 1.315253 -14.924876 -0.009000 0.611000 -1.679000 0.530172 6.005670 -0.016733 -1.968448 3.701950 -1.655687 0.170742 0.272470 -4.788715 2.452200 -0.124400 5.692300 -61.973365 0.258124 -3.204576 15.181571 -28.115963 -4.862006 -0.064102 -1.673965 5.975241 -7.125000 0.000000 0.000000 37.348731 24.220958 17.237134 -28.774928 36.012757 -11.462875 0.926613 -0.399498 9.283494 7.125000 0.000000 0.000000 
2.093580 17.701793 -7.006009 0.248875 -29.241614 5.946202 -10.757923 -9.429915 -27.443240 -1.356484 4.452056 12.588692 -2.078628 10.450850 2.123125 0.214000 -2.978200 -8.217900 20.459198 3.275432 -8.387297 -1.381494 -8.101450 26.467118 -1.227653 1.235664 -14.870327 -0.018000 0.867400 -2.383900 0.549858 5.951602 0.131168 -1.930961 3.662748 -1.563419 0.285335 0.251179 -5.029558 2.498800 -0.118300 5.618600 -63.348386 0.534142 -2.755150 13.565804 -25.975362 -4.001552 -0.181345 -1.590909 10.520797 -7.125000 0.000000 0.000000 39.809712 22.962533 18.143540 -28.293740 35.569666 -11.107338 0.984506 -0.360096 8.775493 7.125000 0.000000 0.000000 
2.119213 17.702999 -7.064915 0.280049 -29.112397 5.956110 -10.835449 -9.252321 -27.488927 -1.374714 4.384710 12.394973 -2.097265 10.570904 2.458137 0.211400 -2.960200 -8.168100 20.468764 3.312514 -8.773929 -1.424237 -8.193147 26.731536 -1.197108 1.098897 -14.845561 -0.023700 0.994800 -2.734400 0.432367 5.826638 0.261162 -2.150780 3.595085 -1.455034 0.304640 0.217605 -5.338247 2.468800 -0.114100 5.523000 -64.381452 0.996530 -2.066889 12.118364 -23.954169 -3.277227 -0.282060 -1.526159 14.814616 -7.125000 0.000000 0.000000 42.515845 21.677658 18.990045 -27.721620 35.053906 -10.699818 1.028525 -0.329448 8.829459 7.125000 0.000000 0.000000 
2.143138 17.703200 -7.121811 0.324942 -28.913336 5.915078 -10.898899 -9.183836 -27.472712 -1.380011 4.356506 12.313464 -2.133027 10.754799 2.759063 0.183200 -2.756500 -7.601600 20.487256 3.317022 -9.113398 -1.470483 -8.289126 27.011980 -1.166234 0.920599 -14.902482 -0.025500 1.031700 -2.836000 0.524395 5.685754 0.339412 -1.928011 3.514896 -1.565692 0.137172 0.297294 -5.439223 2.409600 -0.082200 5.489700 -65.884186 1.683391 -1.899829 10.799277 -21.995471 -2.656305 -0.343144 -1.476117 19.486712 -7.125000 0.000000 0.000000 44.755043 20.251277 19.572576 -26.936013 34.383993 -10.171430 0.910445 -0.360530 10.076904 7.125000 0.000000 0.000000 
2.166459 17.702195 -7.174686 0.353655 -28.720159 5.808044 -11.013230 -8.998589 -27.435763 -1.372699 4.374455 12.364227 -2.135566 10.813984 3.130822 0.188100 -2.793300 -7.703700 20.510280 3.350652 -9.319409 -1.519452 -8.384004 27.293487 -1.167185 0.837222 -15.074840 -0.026500 1.051900 -2.891600 0.590227 5.549111 0.628005 -1.767704 3.443638 -1.224955 0.110696 0.328697 -5.684904 2.397800 -0.057400 5.431000 -67.398009 2.039020 -1.998229 9.753768 -20.336594 -2.192909 -0.351131 -1.448825 23.523012 -7.125000 0.000000 0.000000 46.889182 19.171737 19.606934 -25.915223 33.462951 -9.503552 0.791817 -0.379779 11.922605 7.125000 0.000000 0.000000 
2.188574 17.701291 -7.226053 0.376632 -28.529627 5.680095 -11.153340 -8.689254 -27.478687 -1.348094 4.458651 12.595694 -2.091133 10.686131 3.505977 0.201900 -2.893000 -7.981000 20.539224 3.321228 -9.503652 -1.565348 -8.468498 27.548823 -1.166799 0.766050 -15.211084 -0.032100 1.156600 -3.179800 0.592678 5.443816 0.871097 -1.720109 3.387661 -1.011404 0.146194 0.314234 -5.962927 2.391200 -0.047900 5.357900 -68.750939 2.587543 -1.865317 8.926543 -18.976211 -1.854311 -0.331569 -1.423941 26.931059 -7.125000 0.000000 0.000000 49.110305 17.974228 19.474698 -24.787821 32.405894 -8.791264 0.775849 -0.381584 13.809383 7.125000 0.000000 0.000000 
2.208075 17.701492 -7.275409 0.424423 -28.264347 5.619201 -11.280117 -8.528192 -27.613565 -1.301446 4.617046 13.022811 -2.087916 10.698579 3.681992 0.215800 -2.990300 -8.251700 20.550085 3.155857 -9.806982 -1.603427 -8.541068 27.764519 -1.137242 0.637207 -15.183724 -0.037700 1.253700 -3.447200 0.451210 5.303959 1.177372 -1.929056 3.324103 -0.572610 0.223409 0.231735 -6.290564 2.362900 -0.062300 5.288300 -69.814793 3.047401 -1.944578 8.176542 -17.702556 -1.589209 -0.338953 -1.332491 30.269627 -7.125000 0.000000 0.000000 51.523545 16.882256 19.033241 -23.593916 31.243389 -8.059626 0.724681 -0.397154 15.842073 7.125000 0.000000 0.000000 
